<svg xmlns="http://www.w3.org/2000/svg" width="33.607" height="27.888" viewBox="0 0 33.607 27.888">
  <g id="Grupo_232" data-name="Grupo 232" transform="translate(-6421.932 1014.193)">
    <path id="Caminho_1216" data-name="Caminho 1216" d="M6513.854-971.329a18.641,18.641,0,0,0,6.409-6.564,18.526,18.526,0,0,0-16.054-9.27,18.527,18.527,0,0,0-5.471.821" transform="translate(-65.475 -22.356)" fill="none" stroke="#627282" stroke-linecap="round" stroke-linejoin="round" stroke-width="1.5"/>
    <path id="Caminho_1217" data-name="Caminho 1217" d="M6430.816-974.421a18.637,18.637,0,0,0-8.136,7.5,18.529,18.529,0,0,0,16.054,9.27,18.469,18.469,0,0,0,7.317-1.5" transform="translate(0 -33.325)" fill="none" stroke="#627282" stroke-linecap="round" stroke-linejoin="round" stroke-width="1.5"/>
    <path id="Caminho_1218" data-name="Caminho 1218" d="M6516.554-932.746a3.881,3.881,0,0,1-2.576.975,3.893,3.893,0,0,1-3.893-3.892,3.873,3.873,0,0,1,.864-2.444" transform="translate(-75.243 -64.585)" fill="none" stroke="#627282" stroke-linecap="round" stroke-linejoin="round" stroke-width="1.5"/>
    <path id="Caminho_1219" data-name="Caminho 1219" d="M6532.177-948.425a3.487,3.487,0,0,1,.818-.086,3.893,3.893,0,0,1,3.893,3.892,3.989,3.989,0,0,1-.079.785" transform="translate(-94.261 -55.63)" fill="none" stroke="#627282" stroke-linecap="round" stroke-linejoin="round" stroke-width="1.5"/>
    <line id="Linha_20" data-name="Linha 20" x2="25.766" y2="25.766" transform="translate(6425.851 -1013.132)" fill="none" stroke="#627282" stroke-linecap="round" stroke-linejoin="round" stroke-width="1.5"/>
  </g>
</svg>
